<?xml version="1.0" encoding="UTF-8" standalone="no"?>
<svg viewBox="0 0 50 50"
 xmlns="http://www.w3.org/2000/svg" xmlns:xlink="http://www.w3.org/1999/xlink"  version="1.2" baseProfile="tiny">
<title>Qt SVG Document</title>
<desc>Generated with Qt</desc>
<defs>
<radialGradient gradientUnits="userSpaceOnUse" cx="11" cy="11" r="11" fx="11" fy="11" id="gradient1">
    <stop offset="0" stop-color="#6957ff" stop-opacity="0.909804" />
    <stop offset="0.7" stop-color="#6957ff" stop-opacity="0.909804" />
    <stop offset="1" stop-color="#503cff" stop-opacity="0.909804" />
</radialGradient>
</defs>
<g fill="none" stroke="black" stroke-width="1" fill-rule="evenodd" stroke-linecap="square" stroke-linejoin="bevel" >

<g fill="url(#gradient1)" stroke="none" transform="matrix(2.27273,0,0,2.27273,0,0)"
font-family="Noto Sans" font-size="10" font-weight="400" font-style="normal" 
>
<circle cx="11" cy="11" r="11"/>
</g>

<g fill="none" stroke="none" transform="matrix(2.27273,0,0,2.27273,0,0)"
font-family="Noto Sans" font-size="10" font-weight="400" font-style="normal" 
>
<rect x="0" y="0" width="22" height="22"/>
</g>

<g fill="#fffffd" fill-opacity="1" stroke="none" transform="matrix(1.60706,-1.60706,1.60706,1.60706,0,0)"
font-family="Noto Sans" font-size="10" font-weight="400" font-style="normal" 
>
<path vector-effect="none" fill-rule="evenodd" d="M-7,15.5563 C-7,15.0041 -6.56124,14.5563 -6.02,14.5563 L6.02,14.5563 C6.56124,14.5563 7,15.0041 7,15.5563 C7,16.1086 6.56124,16.5563 6.02,16.5563 L-6.02,16.5563 C-6.56124,16.5563 -7,16.1086 -7,15.5563 "/>
</g>

<g fill="#fffffd" fill-opacity="1" stroke="none" transform="matrix(-1.60706,-1.60706,-1.60706,1.60706,0,0)"
font-family="Noto Sans" font-size="10" font-weight="400" font-style="normal" 
>
<path vector-effect="none" fill-rule="evenodd" d="M-22.5563,0 C-22.5563,-0.552285 -22.1176,-1 -21.5763,-1 L-9.53635,-1 C-8.99511,-1 -8.55635,-0.552285 -8.55635,0 C-8.55635,0.552285 -8.99511,1 -9.53635,1 L-21.5763,1 C-22.1176,1 -22.5563,0.552285 -22.5563,0 "/>
</g>

<g fill="none" stroke="#000000" stroke-opacity="1" stroke-width="1" stroke-linecap="square" stroke-linejoin="bevel" transform="matrix(1,0,0,1,0,0)"
font-family="Noto Sans" font-size="10" font-weight="400" font-style="normal" 
>
</g>
</g>
</svg>
