<?xml version="1.0" encoding="UTF-8" standalone="no"?>
<svg viewBox="0 0 50 50"
 xmlns="http://www.w3.org/2000/svg" xmlns:xlink="http://www.w3.org/1999/xlink"  version="1.2" baseProfile="tiny">
<title>Qt SVG Document</title>
<desc>Generated with Qt</desc>
<defs>
<radialGradient gradientUnits="userSpaceOnUse" cx="11" cy="38" r="11" fx="11" fy="38" id="gradient1">
    <stop offset="0" stop-color="#9001fe" stop-opacity="1" />
    <stop offset="0.7" stop-color="#9001fe" stop-opacity="1" />
    <stop offset="1" stop-color="#6401b1" stop-opacity="1" />
</radialGradient>
</defs>
<g fill="none" stroke="black" stroke-width="1" fill-rule="evenodd" stroke-linecap="square" stroke-linejoin="bevel" >

<g fill="url(#gradient1)" stroke="none" transform="matrix(2.27273,0,0,2.27273,0,-61.3636)"
font-family="Noto Sans" font-size="10" font-weight="400" font-style="normal" 
>
<circle cx="11" cy="38" r="11"/>
</g>

<g fill="none" stroke="none" transform="matrix(2.27273,0,0,2.27273,0,-61.3636)"
font-family="Noto Sans" font-size="10" font-weight="400" font-style="normal" 
>
<rect x="0" y="27" width="22" height="22"/>
</g>

<g fill="#fffffe" fill-opacity="1" stroke="none" transform="matrix(2.27273,0,0,2.27273,0,-61.3636)"
font-family="Noto Sans" font-size="10" font-weight="400" font-style="normal" 
>
<path vector-effect="none" fill-rule="evenodd" d="M5,38.99 C5,38.4432 5.44772,38 6,38 C6.55228,38 7,38.4432 7,38.99 L7,43.01 C7,43.5568 6.55228,44 6,44 C5.44772,44 5,43.5568 5,43.01 L5,38.99"/>
</g>

<g fill="#fffffe" fill-opacity="1" stroke="none" transform="matrix(0,2.27273,-2.27273,0,0,-61.3636)"
font-family="Noto Sans" font-size="10" font-weight="400" font-style="normal" 
>
<path vector-effect="none" fill-rule="evenodd" d="M42,-10.01 C42,-10.5568 42.4477,-11 43,-11 C43.5523,-11 44,-10.5568 44,-10.01 L44,-5.99 C44,-5.44324 43.5523,-5 43,-5 C42.4477,-5 42,-5.44324 42,-5.99 L42,-10.01"/>
</g>

<g fill="#fffffe" fill-opacity="1" stroke="none" transform="matrix(-2.27273,0,0,-2.27273,50,111.364)"
font-family="Noto Sans" font-size="10" font-weight="400" font-style="normal" 
>
<path vector-effect="none" fill-rule="evenodd" d="M5,38.99 C5,38.4432 5.44772,38 6,38 C6.55228,38 7,38.4432 7,38.99 L7,43.01 C7,43.5568 6.55228,44 6,44 C5.44772,44 5,43.5568 5,43.01 L5,38.99"/>
</g>

<g fill="#fffffe" fill-opacity="1" stroke="none" transform="matrix(0,-2.27273,2.27273,0,50,111.364)"
font-family="Noto Sans" font-size="10" font-weight="400" font-style="normal" 
>
<path vector-effect="none" fill-rule="evenodd" d="M42,-10.01 C42,-10.5568 42.4477,-11 43,-11 C43.5523,-11 44,-10.5568 44,-10.01 L44,-5.99 C44,-5.44324 43.5523,-5 43,-5 C42.4477,-5 42,-5.44324 42,-5.99 L42,-10.01"/>
</g>

<g fill="none" stroke="#000000" stroke-opacity="1" stroke-width="1" stroke-linecap="square" stroke-linejoin="bevel" transform="matrix(1,0,0,1,0,0)"
font-family="Noto Sans" font-size="10" font-weight="400" font-style="normal" 
>
</g>
</g>
</svg>
