<?xml version="1.0" encoding="UTF-8" standalone="no"?>
<svg viewBox="0 0 50 50"
 xmlns="http://www.w3.org/2000/svg" xmlns:xlink="http://www.w3.org/1999/xlink"  version="1.2" baseProfile="tiny">
<title>Qt SVG Document</title>
<desc>Generated with Qt</desc>
<defs>
<radialGradient gradientUnits="userSpaceOnUse" cx="11" cy="38" r="11" fx="11" fy="38" id="gradient1">
    <stop offset="0" stop-color="#6957ff" stop-opacity="0.909804" />
    <stop offset="0.7" stop-color="#6957ff" stop-opacity="0.909804" />
    <stop offset="1" stop-color="#503cff" stop-opacity="0.909804" />
</radialGradient>
</defs>
<g fill="none" stroke="black" stroke-width="1" fill-rule="evenodd" stroke-linecap="square" stroke-linejoin="bevel" >

<g fill="url(#gradient1)" stroke="none" transform="matrix(2.27273,0,0,2.27273,0,-61.3636)"
font-family="Noto Sans" font-size="10" font-weight="400" font-style="normal" 
>
<circle cx="11" cy="38" r="11"/>
</g>

<g fill="none" stroke="none" transform="matrix(2.27273,0,0,2.27273,0,-61.3636)"
font-family="Noto Sans" font-size="10" font-weight="400" font-style="normal" 
>
<rect x="0" y="27" width="22" height="22"/>
</g>

<g fill="#fffffe" fill-opacity="1" stroke="none" transform="matrix(-2.27273,0,0,-2.27273,0,-61.3636)"
font-family="Noto Sans" font-size="10" font-weight="400" font-style="normal" 
>
<path vector-effect="none" fill-rule="evenodd" d="M-10,-44.01 C-10,-44.5568 -9.55228,-45 -9,-45 C-8.44772,-45 -8,-44.5568 -8,-44.01 L-8,-39.99 C-8,-39.4432 -8.44772,-39 -9,-39 C-9.55228,-39 -10,-39.4432 -10,-39.99 L-10,-44.01"/>
</g>

<g fill="#fffffe" fill-opacity="1" stroke="none" transform="matrix(0,-2.27273,2.27273,0,0,-61.3636)"
font-family="Noto Sans" font-size="10" font-weight="400" font-style="normal" 
>
<path vector-effect="none" fill-rule="evenodd" d="M-41,4.99 C-41,4.44324 -40.5523,4 -40,4 C-39.4477,4 -39,4.44324 -39,4.99 L-39,9.01 C-39,9.55676 -39.4477,10 -40,10 C-40.5523,10 -41,9.55676 -41,9.01 L-41,4.99"/>
</g>

<g fill="#fffffe" fill-opacity="1" stroke="none" transform="matrix(2.27273,0,0,2.27273,50,111.364)"
font-family="Noto Sans" font-size="10" font-weight="400" font-style="normal" 
>
<path vector-effect="none" fill-rule="evenodd" d="M-10,-44.01 C-10,-44.5568 -9.55228,-45 -9,-45 C-8.44772,-45 -8,-44.5568 -8,-44.01 L-8,-39.99 C-8,-39.4432 -8.44772,-39 -9,-39 C-9.55228,-39 -10,-39.4432 -10,-39.99 L-10,-44.01"/>
</g>

<g fill="#fffffe" fill-opacity="1" stroke="none" transform="matrix(0,2.27273,-2.27273,0,50,111.364)"
font-family="Noto Sans" font-size="10" font-weight="400" font-style="normal" 
>
<path vector-effect="none" fill-rule="evenodd" d="M-41,4.99 C-41,4.44324 -40.5523,4 -40,4 C-39.4477,4 -39,4.44324 -39,4.99 L-39,9.01 C-39,9.55676 -39.4477,10 -40,10 C-40.5523,10 -41,9.55676 -41,9.01 L-41,4.99"/>
</g>

<g fill="none" stroke="#000000" stroke-opacity="1" stroke-width="1" stroke-linecap="square" stroke-linejoin="bevel" transform="matrix(1,0,0,1,0,0)"
font-family="Noto Sans" font-size="10" font-weight="400" font-style="normal" 
>
</g>
</g>
</svg>
