<?xml version="1.0" encoding="UTF-8" standalone="no"?>
<svg viewBox="0 0 50 50"
 xmlns="http://www.w3.org/2000/svg" xmlns:xlink="http://www.w3.org/1999/xlink"  version="1.2" baseProfile="tiny">
<title>Qt SVG Document</title>
<desc>Generated with Qt</desc>
<defs>
<radialGradient gradientUnits="userSpaceOnUse" cx="11" cy="38" r="11" fx="11" fy="38" id="gradient1">
    <stop offset="0" stop-color="#feb26b" stop-opacity="1" />
    <stop offset="0.7" stop-color="#feb26b" stop-opacity="1" />
    <stop offset="1" stop-color="#fd881b" stop-opacity="1" />
</radialGradient>
</defs>
<g fill="none" stroke="black" stroke-width="1" fill-rule="evenodd" stroke-linecap="square" stroke-linejoin="bevel" >

<g fill="url(#gradient1)" stroke="none" transform="matrix(2.27273,0,0,2.27273,0,-61.3636)"
font-family="Noto Sans" font-size="10" font-weight="400" font-style="normal" 
>
<circle cx="11" cy="38" r="11"/>
</g>

<g fill="none" stroke="none" transform="matrix(2.27273,0,0,2.27273,0,-61.3636)"
font-family="Noto Sans" font-size="10" font-weight="400" font-style="normal" 
>
<rect x="0" y="27" width="22" height="22"/>
</g>

<g fill="#fffffe" fill-opacity="1" stroke="none" transform="matrix(2.27273,0,0,2.27273,0,-61.3636)"
font-family="Noto Sans" font-size="10" font-weight="400" font-style="normal" 
>
<path vector-effect="none" fill-rule="evenodd" d="M5,38 C5,37.4477 5.42981,37 5.96,37 L16.04,37 C16.5702,37 17,37.4477 17,38 C17,38.5523 16.5702,39 16.04,39 L5.96,39 C5.42981,39 5,38.5523 5,38 "/>
</g>

<g fill="none" stroke="#000000" stroke-opacity="1" stroke-width="1" stroke-linecap="square" stroke-linejoin="bevel" transform="matrix(1,0,0,1,0,0)"
font-family="Noto Sans" font-size="10" font-weight="400" font-style="normal" 
>
</g>
</g>
</svg>
